<svg width="128" height="25" viewBox="0 0 128 25" fill="none" xmlns="http://www.w3.org/2000/svg">
<path d="M14.175 0.449999V3.875H9.525V18H5.25V3.875H0.6V0.449999H14.175ZM15.4705 11C15.4705 9.56667 15.7372 8.30833 16.2705 7.225C16.8205 6.14167 17.5622 5.30833 18.4955 4.725C19.4288 4.14167 20.4705 3.85 21.6205 3.85C22.6038 3.85 23.4622 4.05 24.1955 4.45C24.9455 4.85 25.5205 5.375 25.9205 6.025V4.05H30.1955V18H25.9205V16.025C25.5038 16.675 24.9205 17.2 24.1705 17.6C23.4372 18 22.5788 18.2 21.5955 18.2C20.4622 18.2 19.4288 17.9083 18.4955 17.325C17.5622 16.725 16.8205 15.8833 16.2705 14.8C15.7372 13.7 15.4705 12.4333 15.4705 11ZM25.9205 11.025C25.9205 9.95833 25.6205 9.11667 25.0205 8.5C24.4372 7.88333 23.7205 7.575 22.8705 7.575C22.0205 7.575 21.2955 7.88333 20.6955 8.5C20.1122 9.1 19.8205 9.93333 19.8205 11C19.8205 12.0667 20.1122 12.9167 20.6955 13.55C21.2955 14.1667 22.0205 14.475 22.8705 14.475C23.7205 14.475 24.4372 14.1667 25.0205 13.55C25.6205 12.9333 25.9205 12.0917 25.9205 11.025ZM38.9633 18.2C37.7466 18.2 36.6633 17.9917 35.7133 17.575C34.7633 17.1583 34.0133 16.5917 33.4633 15.875C32.9133 15.1417 32.6049 14.325 32.5383 13.425H36.7633C36.8133 13.9083 37.0383 14.3 37.4383 14.6C37.8383 14.9 38.3299 15.05 38.9133 15.05C39.4466 15.05 39.8549 14.95 40.1383 14.75C40.4383 14.5333 40.5883 14.2583 40.5883 13.925C40.5883 13.525 40.3799 13.2333 39.9633 13.05C39.5466 12.85 38.8716 12.6333 37.9383 12.4C36.9383 12.1667 36.1049 11.925 35.4383 11.675C34.7716 11.4083 34.1966 11 33.7133 10.45C33.2299 9.88333 32.9883 9.125 32.9883 8.175C32.9883 7.375 33.2049 6.65 33.6383 6C34.0883 5.33333 34.7383 4.80833 35.5883 4.425C36.4549 4.04167 37.4799 3.85 38.6633 3.85C40.4133 3.85 41.7883 4.28333 42.7883 5.15C43.8049 6.01667 44.3883 7.16667 44.5383 8.6H40.5883C40.5216 8.11667 40.3049 7.73333 39.9383 7.45C39.5883 7.16667 39.1216 7.025 38.5383 7.025C38.0383 7.025 37.6549 7.125 37.3883 7.325C37.1216 7.50833 36.9883 7.76667 36.9883 8.1C36.9883 8.5 37.1966 8.8 37.6133 9C38.0466 9.2 38.7133 9.4 39.6133 9.6C40.6466 9.86667 41.4883 10.1333 42.1383 10.4C42.7883 10.65 43.3549 11.0667 43.8383 11.65C44.3383 12.2167 44.5966 12.9833 44.6133 13.95C44.6133 14.7667 44.3799 15.5 43.9133 16.15C43.4633 16.7833 42.8049 17.2833 41.9383 17.65C41.0883 18.0167 40.0966 18.2 38.9633 18.2ZM55.0037 14.375V18H52.8287C51.2787 18 50.0704 17.625 49.2037 16.875C48.337 16.1083 47.9037 14.8667 47.9037 13.15V7.6H46.2037V4.05H47.9037V0.65H52.1787V4.05H54.9787V7.6H52.1787V13.2C52.1787 13.6167 52.2787 13.9167 52.4787 14.1C52.6787 14.2833 53.012 14.375 53.4787 14.375H55.0037ZM71.635 4.05L62.885 24.625H58.285L61.485 17.525L55.81 4.05H60.585L63.81 12.775L67.01 4.05H71.635ZM93.6787 0.449999V18H89.4037V10.775H82.7537V18H78.4787V0.449999H82.7537V7.325H89.4037V0.449999H93.6787ZM100.965 0.449999V10.95C100.965 12 101.223 12.8083 101.74 13.375C102.257 13.9417 103.015 14.225 104.015 14.225C105.015 14.225 105.782 13.9417 106.315 13.375C106.848 12.8083 107.115 12 107.115 10.95V0.449999H111.39V10.925C111.39 12.4917 111.057 13.8167 110.39 14.9C109.723 15.9833 108.823 16.8 107.69 17.35C106.573 17.9 105.323 18.175 103.94 18.175C102.557 18.175 101.315 17.9083 100.215 17.375C99.1315 16.825 98.2732 16.0083 97.6398 14.925C97.0065 13.825 96.6898 12.4917 96.6898 10.925V0.449999H100.965ZM127.017 0.449999V3.875H122.367V18H118.092V3.875H113.442V0.449999H127.017Z" fill="#403F3F"/>
</svg>
